<svg width="12" height="16" viewBox="0 0 12 16" fill="none" xmlns="http://www.w3.org/2000/svg">
<path d="M11.6085 0.411008C11.4912 0.356305 11.3608 0.337529 11.2332 0.357249C11.1055 0.376969 10.9864 0.434241 10.8904 0.5219L9.85614 1.45133C9.82793 1.47672 9.78547 1.47659 9.75752 1.45106L8.35015 0.173565C8.2273 0.0618604 8.06798 0 7.90294 0C7.7379 0 7.57872 0.0618638 7.45574 0.173565L6.0497 1.44985C6.02135 1.47551 5.97862 1.47551 5.95027 1.44985L4.54409 0.173565C4.42111 0.0618604 4.26193 0 4.09689 0C3.93185 0 3.77267 0.0618638 3.64968 0.173565L2.24217 1.45106C2.21396 1.47659 2.17137 1.47672 2.14302 1.45133L1.10778 0.5219C0.978813 0.405468 0.810313 0.344417 0.63782 0.35171C0.46546 0.359003 0.302415 0.433968 0.183426 0.560936C0.0644376 0.687769 -0.00131239 0.856607 1.98572e-05 1.03179V14.9682C-0.001178 15.1437 0.0648363 15.3126 0.184091 15.4395C0.303345 15.5664 0.466523 15.6414 0.639132 15.6487C0.811891 15.6559 0.98054 15.5947 1.10964 15.4781L2.14392 14.5487C2.17213 14.5233 2.21459 14.5234 2.24254 14.5489L3.64991 15.8263V15.8264C3.77276 15.9381 3.93208 16 4.09712 16C4.26216 16 4.42134 15.9381 4.54432 15.8264L5.9506 14.5502H5.95047C5.97882 14.5245 6.02154 14.5245 6.0499 14.5502L7.45618 15.8263H7.45605C7.57903 15.9381 7.73821 15.9999 7.90325 15.9999C8.06829 15.9999 8.22747 15.9381 8.35045 15.8263L9.75806 14.5489C9.78628 14.5234 9.82887 14.5233 9.85709 14.5487L10.8923 15.4781H10.8925C11.0214 15.5944 11.1898 15.6553 11.3623 15.648C11.5346 15.6407 11.6974 15.5658 11.8164 15.4389C11.9354 15.3121 12.0013 15.1433 11.9999 14.9682V1.0318C12.0017 0.900778 11.9655 0.772192 11.8959 0.661845C11.8262 0.551492 11.7263 0.464373 11.6084 0.411018L11.6085 0.411008ZM2.46748 5.42831H6.17868C6.34332 5.42831 6.47681 5.56379 6.47681 5.73087C6.47681 5.89795 6.34332 6.03343 6.17868 6.03343H2.46748C2.30284 6.03343 2.16934 5.89795 2.16934 5.73087C2.16934 5.56379 2.30284 5.42831 2.46748 5.42831ZM9.53279 10.5718H2.46748C2.30284 10.5718 2.16934 10.4363 2.16934 10.2693C2.16934 10.1022 2.30284 9.96671 2.46748 9.96671H9.53279C9.69743 9.96671 9.83093 10.1022 9.83093 10.2693C9.83093 10.4363 9.69743 10.5718 9.53279 10.5718ZM9.53279 8.30263H2.46748C2.30284 8.30263 2.16934 8.16715 2.16934 8.00007C2.16934 7.83299 2.30284 7.69751 2.46748 7.69751H9.53279C9.69743 7.69751 9.83093 7.83299 9.83093 8.00007C9.83093 8.16715 9.69743 8.30263 9.53279 8.30263Z" fill="#7F8A89"/>
</svg>
