<svg width="24" height="24" viewBox="0 0 24 24" fill="none" xmlns="http://www.w3.org/2000/svg">
<path d="M0.712786 0.000271176C0.52489 -0.00169819 0.343892 0.071565 0.210158 0.20351C0.0764281 0.335459 0.000797483 0.515461 5.88665e-06 0.703343V23.2914C-0.00156974 23.6811 0.313357 23.9984 0.703115 24H23.2913C23.4794 24.0006 23.6602 23.9261 23.7932 23.7932C23.9263 23.6601 24.0008 23.4795 24 23.2914V10.7655C24.0008 10.5772 23.9263 10.3966 23.7932 10.2637C23.6602 10.1305 23.4794 10.0561 23.2913 10.0569H13.9384V2.11629C13.9372 1.75826 13.6682 1.4579 13.3125 1.41737L0.785603 0.00571123C0.761377 0.00256021 0.736955 0.00059088 0.712534 0L0.712786 0.000271176ZM1.41176 1.49602L12.5309 2.7464V22.5868H10.5663V16.0125C10.5679 15.6225 10.2529 15.3055 9.86319 15.3039H4.07395C3.68417 15.3054 3.36922 15.6225 3.37084 16.0125V22.5868H1.41176V1.49602ZM3.12131 4.55922C2.7597 4.59467 2.48415 4.89894 2.48435 5.26228V7.7589C2.48356 7.94619 2.55742 8.12639 2.68957 8.25912C2.82173 8.39206 3.00135 8.46709 3.18885 8.46749H5.77803C5.96612 8.46808 6.14692 8.39364 6.27986 8.2607C6.413 8.12757 6.48745 7.94697 6.48667 7.7589V5.26228C6.48509 4.87234 6.1678 4.55761 5.77801 4.55922H3.18884C3.16638 4.55804 3.14373 4.55804 3.12128 4.55922H3.12131ZM8.09142 4.55922C7.73041 4.59526 7.45547 4.89934 7.45588 5.26228V7.7589C7.4543 8.14864 7.76923 8.46589 8.15899 8.4675H10.7495C10.9376 8.46809 11.1184 8.39365 11.2514 8.26071C11.3845 8.12758 11.459 7.94699 11.4582 7.75891V5.26229C11.4566 4.87235 11.1393 4.55762 10.7495 4.55924H8.15897C8.13652 4.55806 8.11387 4.55806 8.09142 4.55924L8.09142 4.55922ZM3.89747 5.97088H5.07489V7.05584H3.89747V5.97088ZM8.86759 5.97088H10.0464V7.05584H8.86759V5.97088ZM3.12121 9.67649C2.7596 9.71193 2.48405 10.0162 2.48425 10.3795V12.8747C2.48504 13.2635 2.79996 13.5784 3.18877 13.5792H5.77795C5.96545 13.5798 6.14546 13.506 6.27841 13.3738C6.41135 13.2417 6.48619 13.0621 6.48659 12.8748V10.3796C6.48501 9.98962 6.16772 9.67489 5.77793 9.67651H3.18875C3.1663 9.67532 3.14365 9.67532 3.1212 9.67651L3.12121 9.67649ZM8.09132 9.67649C7.7303 9.71253 7.45537 10.0166 7.45578 10.3795V12.8747C7.45657 13.2629 7.77071 13.5776 8.15889 13.5792H10.7494C10.9369 13.5798 11.1169 13.506 11.2499 13.3738C11.3828 13.2417 11.4577 13.0621 11.4581 12.8748V10.3796C11.4565 9.98962 11.1392 9.67489 10.7494 9.67651H8.15887C8.13642 9.67532 8.11377 9.67532 8.09132 9.67651L8.09132 9.67649ZM3.89737 11.0826H5.07479V12.1662H3.89737V11.0826ZM8.86749 11.0826H10.0463V12.1662H8.86749V11.0826ZM13.9382 11.4686H22.5878V22.587H13.9382V11.4686ZM16.9713 12.5163C16.7832 12.5156 16.6024 12.59 16.4695 12.7231C16.3363 12.8561 16.2619 13.0367 16.2627 13.2249V15.7201C16.2643 16.1099 16.5816 16.4246 16.9713 16.4232H19.5605C19.9481 16.4216 20.2621 16.1077 20.2636 15.7201V13.2249C20.2652 12.835 19.9503 12.5179 19.5605 12.5163L16.9713 12.5163ZM17.6744 13.928H18.8518V15.0116H17.6744V13.928ZM4.7825 16.7155H9.15978V22.587H4.7825V16.7155ZM16.9716 17.6323C16.7835 17.6315 16.6027 17.7059 16.4697 17.839C16.3366 17.972 16.2621 18.1526 16.2629 18.3408V20.836C16.2633 21.0233 16.3382 21.2029 16.4711 21.3351C16.6041 21.4672 16.7841 21.5411 16.9716 21.5405H19.5608C19.9489 21.5389 20.2631 21.2242 20.2639 20.836V18.3408C20.2654 17.9509 19.9505 17.6338 19.5608 17.6322L16.9716 17.6323ZM17.6747 19.0439H18.8521V20.1275H17.6747V19.0439Z" fill="#005B54"/>
</svg>
