<svg width="20" height="18" viewBox="0 0 20 18" fill="none" xmlns="http://www.w3.org/2000/svg">
<path d="M2.30764 0H17.6924C18.9669 0 20 1.02436 20 2.28804V15.712C20 16.9756 18.9669 18 17.6924 18H2.30764C1.03314 18 0 16.9756 0 15.712V2.28804C0 1.02436 1.03314 0 2.30764 0ZM4.52462 1.52541H2.30764C1.88292 1.52541 1.53847 1.86692 1.53847 2.28804V4.57627H2.98611L4.52462 1.52541ZM6.24464 1.52541L4.70616 4.57627H8.37078L9.90925 1.52541H6.24464ZM11.6296 1.52541L10.0911 4.57627H13.7557L15.2942 1.52541H11.6296ZM17.0141 1.52541L15.4756 4.57627H18.4618V2.28804C18.4618 1.86693 18.1173 1.52541 17.6926 1.52541H17.0141ZM18.4617 6.10168H1.53857V15.7117C1.53857 16.1328 1.88301 16.4744 2.30773 16.4744H17.6925C18.1172 16.4744 18.4616 16.1328 18.4616 15.7117L18.4617 6.10168Z" fill="#7F8A89"/>
</svg>
