<svg width="19" height="16" viewBox="0 0 19 16" fill="none" xmlns="http://www.w3.org/2000/svg">
<path d="M11 16C6.58172 16 3 12.4183 3 8H0.561704C0.113827 8 -0.153315 7.52302 0.0951224 7.16692L3.53342 2.23861C3.75538 1.92046 4.24462 1.92046 4.46658 2.23861L7.90488 7.16692C8.15332 7.52302 7.88617 8 7.4383 8H5C5 11.3137 7.68629 14 11 14C14.3137 14 17 11.3137 17 8C17 4.68629 14.3137 2 11 2C10.328 2 9.68184 2.11047 9.07863 2.31424C8.59676 2.47702 8.04448 2.34926 7.75281 1.93258C7.40712 1.43874 7.56343 0.748396 8.12597 0.53177C9.01795 0.188286 9.98699 0 11 0C15.4183 0 19 3.58172 19 8C19 12.4183 15.4183 16 11 16Z" fill="#005B54"/>
</svg>
