<svg width="24" height="24" viewBox="0 0 24 24" fill="none" xmlns="http://www.w3.org/2000/svg">
<path d="M10.6009 15.1902C10.7812 15.3705 11.0175 15.4607 11.2536 15.4607C11.4897 15.4607 11.7259 15.3705 11.9062 15.1902L16.9822 10.1151C17.3428 9.75456 17.3428 9.17043 16.9822 8.80985C16.6217 8.44928 16.0375 8.44928 15.677 8.80985L11.2536 13.2324L9.59762 11.5764C9.23704 11.2158 8.65292 11.2158 8.29234 11.5764C7.93177 11.937 7.93177 12.5211 8.29234 12.8817L10.6009 15.1902Z" fill="#121F1E"/>
<path fill-rule="evenodd" clip-rule="evenodd" d="M0 12C0 18.6166 5.38286 24 12 24C18.6171 24 24 18.6166 24 12C24 5.38338 18.6171 0 12 0C5.38286 0 0 5.38338 0 12ZM1.84615 12C1.84615 6.40114 6.40141 1.84615 12 1.84615C17.5989 1.84615 22.1538 6.40114 22.1538 12C22.1538 17.5989 17.5989 22.1538 12 22.1538C6.40114 22.1538 1.84615 17.5989 1.84615 12Z" fill="#121F1E"/>
</svg>
