<svg width="16" height="16" viewBox="0 0 16 16" fill="none" xmlns="http://www.w3.org/2000/svg">
<path fill-rule="evenodd" clip-rule="evenodd" d="M8 16C12.4183 16 16 12.4183 16 8C16 3.58172 12.4183 0 8 0C3.58172 0 0 3.58172 0 8C0 12.4183 3.58172 16 8 16ZM11.7787 5.87241C12.0738 5.55845 12.0738 5.04943 11.7787 4.73547C11.4835 4.42151 11.005 4.42151 10.7099 4.73547L6.48854 9.22611L5.29011 7.95123C4.99498 7.63728 4.51648 7.63727 4.22135 7.95123C3.92622 8.26519 3.92622 8.77422 4.22135 9.08818L6.48854 11.5L11.7787 5.87241Z" fill="#008937"/>
</svg>
