<svg width="16" height="16" viewBox="0 0 16 16" fill="none" xmlns="http://www.w3.org/2000/svg">
<path fill-rule="evenodd" clip-rule="evenodd" d="M8.1632 10.5781L8.08038 10.5771L8.06314 10.5762L8.0099 10.5693L7.93573 10.5762L7.92072 10.5771L7.8341 10.5781C6.56433 10.4893 5.56074 9.36914 5.56074 7.99805C5.56074 6.62793 6.56433 5.50977 7.8341 5.4209L7.93416 5.42188L7.9874 5.42871L8.06157 5.42188H8.07657L8.1632 5.4209C9.43296 5.50977 10.4366 6.62988 10.4366 7.99805C10.4366 9.36719 9.43296 10.4873 8.1632 10.5781ZM7.99868 6.36133C7.7325 6.36133 7.4823 6.43359 7.26453 6.55859C7.563 6.61816 7.78889 6.89648 7.78889 7.23242C7.78889 7.61035 7.5001 7.91797 7.14185 7.91797C6.86431 7.91797 6.62717 7.73145 6.5352 7.47168C6.48197 7.6377 6.45293 7.81543 6.45293 8C6.45293 8.90527 7.14509 9.6377 7.99711 9.6377C8.84898 9.6377 9.54128 8.90332 9.54128 8C9.54128 7.09668 8.84912 6.36328 7.99711 6.36328L7.99868 6.36133Z" fill="#7F8A89"/>
<path fill-rule="evenodd" clip-rule="evenodd" d="M8 16C12.4183 16 16 12.418 16 8C16 3.58203 12.4183 0 8 0C3.58172 0 0 3.58203 0 8C0 12.418 3.58172 16 8 16ZM13.8136 7.47461C11.5321 4.72949 8.91347 4.51172 8.19201 4.50684C8.12752 4.50293 8.06449 4.5 8 4.5C7.93551 4.5 7.8709 4.50195 7.80799 4.50684C7.08678 4.51172 4.46631 4.72949 2.18638 7.47461C1.93787 7.77441 1.93787 8.22559 2.18638 8.52539C4.46787 11.2705 7.08652 11.4883 7.80799 11.4932L7.8749 11.4961C7.91652 11.499 7.95795 11.5 8 11.5C8.06449 11.5 8.12909 11.498 8.19201 11.4932C8.91321 11.4883 11.5337 11.2705 13.8136 8.52539C14.0621 8.22559 14.0621 7.77441 13.8136 7.47461Z" fill="#7F8A89"/>
</svg>
