<svg width="16" height="16" viewBox="0 0 16 16" fill="none" xmlns="http://www.w3.org/2000/svg">
<path fill-rule="evenodd" clip-rule="evenodd" d="M16 8C16 3.58172 12.4183 -5.4282e-07 8 -3.49691e-07C3.58172 -1.56562e-07 -5.4282e-07 3.58172 -3.49691e-07 8C-1.56562e-07 12.4183 3.58172 16 8 16C12.4183 16 16 12.4183 16 8ZM3.55192 7.5057C3.2471 7.5057 3 7.74889 3 8.04888C3 8.34888 3.2471 8.59207 3.55192 8.59207L11.1156 8.54319L8.54541 11.0727C8.32987 11.2849 8.32987 11.6288 8.54541 11.8409C8.76094 12.053 9.1104 12.053 9.32594 11.8409L12.8383 8.38409C13.0539 8.17196 13.0539 7.82804 12.8383 7.61591L9.32594 4.1591C9.1104 3.94697 8.76094 3.94697 8.5454 4.1591C8.32987 4.37122 8.32987 4.71515 8.5454 4.92728L11.1156 7.45681L3.55192 7.5057Z" fill="#3E8680"/>
</svg>
