<svg width="24" height="28" viewBox="0 0 24 28" fill="none" xmlns="http://www.w3.org/2000/svg">
<path d="M11.1787 22.7625V21.0965C10.3271 20.8041 9.67444 20.1319 9.41904 19.2845C8.93658 17.794 9.73125 16.2156 11.1787 15.7188C12.6261 15.222 14.1589 16.0403 14.6414 17.5308C15.1239 19.0213 14.3292 20.5996 12.8817 21.0965V22.7625C12.8817 23.2593 12.5127 23.6393 12.0302 23.6393C11.5477 23.6393 11.1787 23.2593 11.1787 22.7625Z" fill="#121F1E"/>
<path fill-rule="evenodd" clip-rule="evenodd" d="M5.47376 6.80983C5.44537 3.06888 8.39716 0.0293843 12.0301 0C15.6631 0.0292537 18.615 3.06882 18.5865 6.80983L18.5867 8.91921H21.4457C22.8648 8.91921 24 10.0882 24 11.5495V25.3697C24 26.831 22.8648 28 21.4457 28H2.55435C1.13521 28 0 26.831 0 25.3697V11.5495C0 10.0882 1.13521 8.91921 2.55435 8.91921H5.47376V6.80983ZM11.6328 1.43211C8.96479 1.66598 6.97785 4.06246 7.17662 6.80983L7.17673 8.89003H16.8552V6.78066C16.8835 6.51764 16.8835 6.28381 16.8552 6.02081C16.6281 3.27345 14.3009 1.22742 11.6328 1.43211ZM22.297 25.3698V11.5496C22.297 11.0528 21.9279 10.673 21.4454 10.6728H2.55415C2.07165 10.6728 1.70261 11.0528 1.70261 11.5496V25.3698C1.70261 25.8666 2.07167 26.2467 2.55415 26.2467H21.4454C21.9279 26.2467 22.297 25.8666 22.297 25.3698Z" fill="#121F1E"/>
</svg>
