<svg width="20" height="16" viewBox="0 0 20 16" fill="none" xmlns="http://www.w3.org/2000/svg">
<path fill-rule="evenodd" clip-rule="evenodd" d="M2.60922 0H17.3907C18.0837 0.00218759 18.7475 0.27807 19.2367 0.767563C19.7259 1.2568 20.0002 1.91964 20 2.61047V10.3683C19.9998 11.0573 19.7244 11.7179 19.2349 12.2041C18.7453 12.6905 18.0818 12.9626 17.3908 12.9604H8.90458L6.05535 15.439C5.29708 16.3483 4.67689 16.1292 4.67689 14.9482V12.9604H2.60922C1.91824 12.9626 1.25474 12.6905 0.76507 12.2041C0.275601 11.7179 0.000220204 11.0572 1.38024e-07 10.3683V2.61047C-0.000224614 1.91964 0.274042 1.25684 0.763269 0.767563C1.25254 0.278048 1.91628 0.00219107 2.60922 0ZM4 4.5C4 3.94772 4.44775 3.5 5 3.5H15C15.5522 3.5 16 3.94772 16 4.5C16 5.05228 15.5522 5.5 15 5.5H5C4.44775 5.5 4 5.05228 4 4.5ZM4 8.5C4 7.94772 4.44775 7.5 5 7.5H9C9.55225 7.5 10 7.94772 10 8.5C10 9.05228 9.55225 9.5 9 9.5H5C4.44775 9.5 4 9.05228 4 8.5Z" fill="#121F1E"/>
</svg>
