<svg width="13" height="16" viewBox="0 0 13 16" fill="none" xmlns="http://www.w3.org/2000/svg">
<path fill-rule="evenodd" clip-rule="evenodd" d="M11.4511 13.4664C12.9991 13.4664 13.6977 11.6428 12.0647 10.2183C11.6378 9.84599 11.3926 9.37704 11.3271 8.80511C11.1935 7.64599 10.9817 5.78173 10.9351 5.23014C10.5493 0.669815 2.45103 0.669815 2.06466 5.23014C2.01811 5.78244 1.80586 7.64608 1.67275 8.80511C1.60665 9.37642 1.36192 9.8455 0.935094 10.2183C-0.697413 11.6423 0.000679333 13.4664 1.5487 13.4664H11.4511ZM6.24207 0H6.75803C7.44471 0 8.01468 0.536874 8.09124 1.22239C7.06081 0.963159 5.93917 0.963159 4.9091 1.22239C4.98521 0.536874 5.55575 0 6.24231 0H6.24207ZM8.35551 14.2531C8.27289 15.2322 7.47415 16 6.50029 16C5.52643 16 4.72712 15.2317 4.64508 14.2531H8.35598H8.35551Z" fill="#7F8A89"/>
</svg>
