<svg width="15" height="16" viewBox="0 0 15 16" fill="none" xmlns="http://www.w3.org/2000/svg">
<path d="M12.4716 9.74185V2.09591C12.4716 1.54004 12.2467 1.00701 11.8461 0.613876C11.4457 0.220894 10.9024 0 10.3361 0H2.13555C1.56917 0 1.0259 0.220905 0.625487 0.613876C0.224919 1.00701 0 1.54004 0 2.09591V11.9216C0 12.4775 0.224934 13.0106 0.625487 13.4036C1.0259 13.7968 1.56917 14.0175 2.13555 14.0175H8.7813C9.20391 15.0464 10.1443 15.7832 11.2604 15.9596C12.3763 16.1361 13.5048 15.7266 14.2355 14.8801C14.966 14.0336 15.192 12.8737 14.831 11.8223C14.4701 10.7712 13.575 9.98183 12.4715 9.74193L12.4716 9.74185ZM3.20332 3.01811H9.26828C9.5026 3.02176 9.69177 3.20729 9.69535 3.43725C9.69535 3.54851 9.65037 3.65509 9.57037 3.73374C9.49023 3.81225 9.38164 3.8564 9.26828 3.8564H3.20332C2.96736 3.8564 2.77624 3.66883 2.77624 3.43726C2.77982 3.20729 2.969 3.02174 3.20332 3.01811L3.20332 3.01811ZM3.20332 5.39909H9.26828C9.50424 5.39909 9.69535 5.58667 9.69535 5.81824C9.69535 6.04967 9.50423 6.23738 9.26828 6.23738H3.20332C2.96736 6.23738 2.77625 6.04966 2.77625 5.81824C2.77625 5.58666 2.96737 5.39909 3.20332 5.39909ZM3.20332 7.78008H9.26828V7.77994C9.38165 7.77994 9.49024 7.82409 9.57038 7.90274C9.65038 7.9814 9.69536 8.08797 9.69536 8.19923C9.69179 8.4292 9.5026 8.61475 9.26829 8.61838H3.20333C2.96901 8.61472 2.77984 8.42919 2.77626 8.19923C2.77626 7.96765 2.96738 7.77994 3.20333 7.77994L3.20332 7.78008ZM7.87598 10.9994L3.20332 10.9992C2.96736 10.9992 2.77625 10.8117 2.77625 10.5801C2.77625 10.3487 2.96737 10.161 3.20332 10.161H7.87598C8.11194 10.161 8.30305 10.3487 8.30305 10.5801C8.30305 10.8117 8.11193 10.9992 7.87598 10.9992V10.9994ZM11.7711 15.1661V15.166C11.1401 15.1672 10.5345 14.9223 10.0876 14.4852C9.64071 14.048 9.38898 13.4546 9.38776 12.8355C9.38657 12.2161 9.63623 11.6218 10.0815 11.1832C10.5269 10.7445 11.1315 10.4974 11.7625 10.4964C12.3934 10.4952 12.9989 10.7402 13.446 11.1772C13.8929 11.6144 14.1446 12.2078 14.1458 12.8269C14.146 13.4459 13.8962 14.0398 13.4511 14.4782C13.0058 14.9167 12.4017 15.164 11.771 15.1659L11.7711 15.1661ZM12.1981 11.5737V12.8314V12.8312C12.1984 13.0037 12.0909 13.1589 11.9273 13.2219L11.1432 13.5229C11.0934 13.5421 11.0404 13.5519 10.9869 13.5514C10.7812 13.5517 10.6046 13.4081 10.5666 13.2099C10.5284 13.0115 10.6399 12.8147 10.8314 12.7416L11.344 12.5454V11.5738C11.344 11.3422 11.5351 11.1545 11.7711 11.1545C12.007 11.1545 12.1981 11.3422 12.1981 11.5738V11.5737Z" fill="#7F8A89"/>
</svg>
