<svg width="20" height="18" viewBox="0 0 20 18" fill="none" xmlns="http://www.w3.org/2000/svg">
<path d="M18.3332 3.05006V2.20016C18.3332 1.26525 17.583 0.5 16.6668 0.5H1.66679C0.750223 0.5 0 1.26525 0 2.20016V3.05006H18.3332Z" fill="#7F8A89"/>
<path fill-rule="evenodd" clip-rule="evenodd" d="M0.000179836 5.60013V12.4006C0.000179836 13.3351 0.750403 14.1004 1.66697 14.1004H10V13.2505C10 9.97007 12.6172 7.30065 15.833 7.30065H18.333V5.60049L0.000179836 5.60013ZM4.16697 11.55H1.66697V9.85017H4.16697V11.55ZM8.33339 11.55H5.83339V9.85017H8.33339V11.55Z" fill="#7F8A89"/>
<path fill-rule="evenodd" clip-rule="evenodd" d="M11.6668 13.2501C11.6668 10.9036 13.5327 8.99991 15.8332 8.99991C18.1341 8.99991 20 10.9036 20 13.2501C20 15.5967 18.1341 17.5 15.8332 17.5C13.5327 17.5 11.6668 15.5967 11.6668 13.2501ZM13.3292 12.8743L15.5387 15.1287L18.3379 12.2734L17.4541 11.3719L15.5387 13.325L14.213 11.9728L13.3292 12.8743Z" fill="#7F8A89"/>
</svg>
