<svg width="15" height="16" viewBox="0 0 15 16" fill="none" xmlns="http://www.w3.org/2000/svg">
<path d="M3.63352 9.80305V14.071C3.63352 15.0618 2.90681 15.9191 1.93783 15.9953C0.875645 16.0714 0 15.2141 0 14.1471V10.2984C0 10.0317 0.204976 9.82207 0.46584 9.82207H3.63352V9.80305ZM15 0.790908V14.1472C15 15.176 14.1801 15.9953 13.1925 15.9953H3.20494C3.72668 15.5951 4.06215 14.9665 4.09932 14.2615V14.1472V0.809948C4.09932 0.428919 4.50926 0.200179 4.82603 0.409764L5.64594 0.962237C5.79503 1.07654 6.00001 1.07654 6.16768 0.962237L7.472 0.0857239C7.62108 -0.0285746 7.82607 -0.0285746 7.99374 0.0857239L9.29806 0.962237C9.44714 1.07654 9.65213 1.07654 9.8198 0.962237L11.1241 0.0857239C11.2732 -0.0285746 11.4782 -0.0285746 11.6459 0.0857239L12.9502 0.962237C13.0993 1.07654 13.3042 1.07654 13.4719 0.962237L14.2918 0.390608C14.59 0.181153 14.9999 0.409747 14.9999 0.790929L15 0.790908ZM12.4472 11.0415C12.4472 10.7748 12.2423 10.5652 11.9814 10.5652H7.13666C6.8758 10.5652 6.67082 10.7748 6.67082 11.0415C6.67082 11.3082 6.8758 11.5178 7.13666 11.5178H11.9814C12.2237 11.537 12.4472 11.3082 12.4472 11.0415ZM12.4472 7.95493C12.4472 7.68819 12.2423 7.4786 11.9814 7.4786H7.13666C6.8758 7.4786 6.67082 7.68819 6.67082 7.95493C6.67082 8.22167 6.8758 8.43126 7.13666 8.43126H11.9814C12.2237 8.43126 12.4472 8.22167 12.4472 7.95493ZM12.4472 4.84923C12.4472 4.58249 12.2423 4.3729 11.9814 4.3729H7.13666C6.8758 4.3729 6.67082 4.58249 6.67082 4.84923C6.67082 5.11597 6.8758 5.32556 7.13666 5.32556H11.9814C12.2237 5.3447 12.4472 5.11597 12.4472 4.84923Z" fill="#3E8680"/>
</svg>
