<svg width="18" height="20" viewBox="0 0 18 20" fill="none" xmlns="http://www.w3.org/2000/svg">
<path d="M9.85272 5.33193H4.4263C3.97717 5.33194 3.63499 4.97367 3.63514 4.55206C3.63514 4.13058 3.97717 3.77233 4.4263 3.77233L9.85272 3.77247C10.2804 3.77247 10.6439 4.13075 10.6439 4.5522C10.6439 4.97368 10.3018 5.33193 9.85272 5.33193Z" fill="#7F8A89"/>
<path d="M13.5519 7.39724H4.4263C3.97717 7.39724 3.63514 7.7555 3.63514 8.17697C3.63514 8.61962 3.99865 8.9567 4.4263 8.9567H13.5521C14.0012 8.9567 14.3432 8.59845 14.3432 8.17697C14.3432 7.75552 14.0011 7.39724 13.5519 7.39724Z" fill="#7F8A89"/>
<path d="M13.5519 11.0643H4.4263C3.97717 11.0643 3.63514 11.4225 3.63514 11.844C3.63514 12.2867 3.99865 12.6237 4.4263 12.6237H13.5521C14.0012 12.6237 14.3432 12.2655 14.3432 11.844C14.3432 11.4015 14.0011 11.0643 13.5519 11.0643Z" fill="#7F8A89"/>
<path d="M13.5519 14.7102H4.4263C3.97717 14.7102 3.63514 15.0685 3.63514 15.4899C3.63514 15.9114 3.99865 16.2697 4.4263 16.2697H13.5521C14.0012 16.2697 14.3432 15.9114 14.3432 15.4899C14.3432 15.0685 14.0011 14.7102 13.5519 14.7102Z" fill="#7F8A89"/>
<path fill-rule="evenodd" clip-rule="evenodd" d="M14.7497 1.01154L16.9949 3.22443C17.6364 3.85671 18 4.72083 18 5.62698V16.607C18 18.4826 16.4604 20 14.5572 20H3.44277C1.53962 20 0 18.4826 0 16.607V3.39305C0 2.4869 0.342177 1.6438 1.00503 0.990517C1.64658 0.358253 2.52335 0 3.44277 0L12.3119 0.0210219C13.2314 0.0210219 14.1081 0.379255 14.7497 1.01154ZM3.44273 18.4404H14.5358C15.5622 18.4404 16.3962 17.6186 16.3962 16.6069V5.69017H13.766C12.9107 5.69017 12.2264 5.0157 12.2264 4.17278V1.58062L3.44273 1.5596C2.95094 1.5596 2.4805 1.74924 2.13833 2.08647C1.77481 2.44474 1.58239 2.90838 1.58239 3.39307V16.607C1.58239 17.6185 2.41635 18.4404 3.44273 18.4404Z" fill="#7F8A89"/>
</svg>
