<svg width="20" height="18" viewBox="0 0 20 18" fill="none" xmlns="http://www.w3.org/2000/svg">
<path d="M19.4011 0.517174C19.6522 0.447511 19.9137 0.596041 19.9829 0.84932L19.9829 0.849352C20.0522 1.10221 19.9041 1.3634 19.6523 1.4328L16.0336 2.43006L16.0338 12.8496C16.0338 13.1118 15.8218 13.3245 15.5606 13.3245H2.05237L0.83316 14.7581C0.739513 14.8679 0.606438 14.9246 0.472942 14.9246C0.36409 14.9246 0.254957 14.8873 0.165956 14.8109C-0.0327403 14.6409 -0.0563958 14.3411 0.113291 14.1417L1.47403 12.5414C1.47811 12.5365 1.48318 12.5332 1.48698 12.5285C1.49825 12.5165 1.51022 12.505 1.52289 12.4943C1.53388 12.4844 1.545 12.4742 1.55697 12.4657C1.56964 12.4568 1.58288 12.4489 1.59612 12.441C1.60936 12.4334 1.62259 12.4257 1.63653 12.4191C1.64763 12.4139 1.6592 12.4098 1.67086 12.4057C1.6734 12.4048 1.67595 12.4039 1.6785 12.403C1.69329 12.3975 1.70807 12.3928 1.72328 12.389C1.73637 12.386 1.74947 12.384 1.76278 12.3819L1.76623 12.3814C1.78284 12.3788 1.7996 12.3768 1.81664 12.3763C1.81912 12.3761 1.8216 12.3758 1.82412 12.3754C1.82732 12.3749 1.83057 12.3744 1.83396 12.3744H3.60293C3.55238 12.2288 3.51928 12.0752 3.51928 11.9125V4.34093C3.51928 3.56243 4.15016 2.92923 4.92552 2.92923H5.36615V6.44858C5.36615 6.71104 5.57781 6.92347 5.83931 6.92347C6.10081 6.92347 6.31246 6.71104 6.31246 6.44858V2.92923H7.03797V4.86783C7.03797 5.13029 7.24962 5.34272 7.51112 5.34272C7.77262 5.34272 7.98427 5.13029 7.98427 4.86783V2.92923L12.4692 2.92937C13.2446 2.92937 13.8755 3.56286 13.8755 4.34108V11.9127C13.8755 12.0754 13.8424 12.229 13.7915 12.3746H15.0871V2.06794C15.0871 2.06223 15.0878 2.05677 15.0886 2.05135C15.0891 2.04736 15.0897 2.0434 15.0899 2.03939C15.0912 2.022 15.0924 2.0049 15.0953 1.9878C15.0977 1.97324 15.1012 1.95939 15.105 1.94539C15.1057 1.94275 15.1065 1.94012 15.1073 1.9375C15.1109 1.92467 15.1145 1.91206 15.1192 1.89974C15.1242 1.88652 15.1302 1.87415 15.1363 1.86162L15.1378 1.85861C15.1444 1.84462 15.1517 1.83133 15.1596 1.81805C15.1669 1.80627 15.1752 1.79501 15.1837 1.78353L15.1848 1.78201C15.1945 1.76929 15.2044 1.75727 15.2151 1.74554C15.2252 1.73508 15.2357 1.72519 15.2464 1.71544C15.2581 1.7047 15.27 1.69452 15.283 1.68505C15.2952 1.67586 15.3082 1.66795 15.3211 1.66032C15.3341 1.65282 15.3469 1.64547 15.3609 1.63883C15.3759 1.63162 15.3921 1.62583 15.4084 1.62018C15.4122 1.61885 15.4157 1.61734 15.4193 1.61584C15.4244 1.61366 15.4295 1.61151 15.4349 1.61L19.4011 0.517174Z" fill="#7F8A89"/>
<path d="M3.1173 13.9747C2.1489 13.9747 1.36099 14.7652 1.36099 15.7372C1.36099 16.7092 2.14901 17.5 3.1173 17.5C4.08571 17.5 4.87362 16.7091 4.87362 15.7372C4.87376 14.7654 4.08575 13.9747 3.1173 13.9747Z" fill="#7F8A89"/>
<path d="M14.2776 13.9747C13.3092 13.9747 12.5213 14.7652 12.5213 15.7372C12.5213 16.7092 13.3093 17.5 14.2776 17.5C15.246 17.5 16.0336 16.7091 16.0336 15.7372C16.0336 14.7654 15.2459 13.9747 14.2776 13.9747Z" fill="#7F8A89"/>
</svg>
