<svg width="20" height="20" viewBox="0 0 20 20" fill="none" xmlns="http://www.w3.org/2000/svg">
<path d="M14.3442 0.359172C11.4718 -0.119724 8.54026 -0.119724 5.66814 0.359172C4.33927 0.578459 3.11257 1.20888 2.16036 2.16165C1.20794 3.11441 0.578132 4.34207 0.358959 5.67173C-0.119653 8.54555 -0.119653 11.4791 0.358959 14.3529C0.578116 15.6826 1.20794 16.91 2.16036 17.863C3.11257 18.8158 4.33927 19.4462 5.66814 19.6652C7.10269 19.8956 8.55353 20.0075 10.0062 19.9996C11.4596 19.9992 12.9105 19.8791 14.3442 19.6404C15.673 19.4211 16.8997 18.7907 17.8519 17.8379C18.8044 16.8851 19.4342 15.6575 19.6533 14.3278C19.8871 12.8972 20.003 11.4497 19.9999 9.99986C19.9995 8.54553 19.8795 7.09378 19.6409 5.65927C19.4202 4.33374 18.7911 3.11021 17.8413 2.16007C16.8917 1.2097 15.6689 0.580189 14.3441 0.359323L14.3442 0.359172ZM17.1893 13.9309C17.0558 14.7461 16.6697 15.4988 16.0859 16.0829C15.5021 16.6671 14.7498 17.0534 13.9351 17.187C13.048 17.333 12.1533 17.4289 11.2553 17.4745V10.2057L12.8169 11.7682C13.0258 11.9872 13.3046 12.1263 13.6051 12.1618C13.9055 12.1971 14.2089 12.1265 14.4627 11.9619C14.7677 11.7509 14.9631 11.4152 14.9962 11.046C15.0294 10.6765 14.8969 10.3114 14.6346 10.0494L11.9518 7.36505V7.36527C11.4353 6.84866 10.7349 6.55853 10.0047 6.55853C9.27446 6.55853 8.57389 6.84866 8.05735 7.36527L5.37457 10.0496L5.37479 10.0494C5.10748 10.3162 4.97503 10.6896 5.01447 11.0652C5.0539 11.4408 5.26086 11.7784 5.57785 11.9838C5.82358 12.1394 6.11528 12.2057 6.40413 12.1714C6.69299 12.1374 6.96139 12.0049 7.16421 11.7963L8.75709 10.209V17.4616C7.85931 17.4204 6.96461 17.3287 6.07732 17.1868C5.26259 17.0531 4.51031 16.6669 3.92652 16.0827C3.34273 15.4985 2.95664 14.7459 2.82313 13.9306C2.38983 11.3288 2.38983 8.67321 2.82313 6.07143C2.95623 5.25554 3.34182 4.50199 3.92568 3.91734C4.50953 3.33254 5.2622 2.94582 6.07737 2.81195C8.67762 2.3784 11.3317 2.3784 13.9319 2.81195C14.7473 2.94514 15.5004 3.33096 16.0847 3.91517C16.6692 4.49936 17.0557 5.25247 17.1895 6.06814C17.4012 7.36772 17.5058 8.68259 17.5016 9.99936C17.5058 11.3162 17.4012 12.631 17.1895 13.9306L17.1893 13.9309Z" fill="#3E8680"/>
</svg>
