<svg width="16" height="16" viewBox="0 0 16 16" fill="none" xmlns="http://www.w3.org/2000/svg">
<path fill-rule="evenodd" clip-rule="evenodd" d="M8 16C12.4183 16 16 12.4183 16 8C16 3.58172 12.4183 0 8 0C3.58172 0 0 3.58172 0 8C0 12.4183 3.58172 16 8 16ZM8.4943 3.55192C8.4943 3.2471 8.25111 3 7.95112 3C7.65112 3 7.40793 3.2471 7.40793 3.55192L7.45681 11.1156L4.92728 8.54541C4.71515 8.32987 4.37122 8.32987 4.1591 8.54541C3.94697 8.76094 3.94697 9.1104 4.1591 9.32594L7.61591 12.8383C7.82804 13.0539 8.17196 13.0539 8.38409 12.8383L11.8409 9.32594C12.053 9.1104 12.053 8.76094 11.8409 8.54541C11.6288 8.32987 11.2849 8.32987 11.0727 8.54541L8.54319 11.1156L8.4943 3.55192Z" fill="#FFA800"/>
</svg>
