<svg width="16" height="16" viewBox="0 0 16 16" fill="none" xmlns="http://www.w3.org/2000/svg">
<path fill-rule="evenodd" clip-rule="evenodd" d="M8 0C3.58462 0 0 3.58462 0 8C0 12.4154 3.58462 16 8 16C12.4154 16 16 12.4154 16 8C16 3.58462 12.4154 0 8 0ZM7.20003 3.99983V8C7.20003 8.30322 7.3712 8.58005 7.6424 8.71518L10.8424 10.3152C11.2368 10.5128 11.7184 10.3529 11.9152 9.95764C12.1129 9.56321 11.9528 9.08159 11.5576 8.88486L8.79993 7.50552V3.99976C8.79993 3.55819 8.44154 3.19979 7.99997 3.19979C7.55839 3.19979 7.2 3.55819 7.2 3.99976L7.20003 3.99983Z" fill="#FFA800"/>
</svg>
